<mxfile host="app.diagrams.net" modified="2023-06-12T09:57:45.374Z" agent="Mozilla/5.0 (Macintosh; Intel Mac OS X 10_15_7) AppleWebKit/537.36 (KHTML, like Gecko) Chrome/114.0.0.0 Safari/537.36" etag="YHDZHoUmx9mfgtNXerOv" version="21.3.7" type="github">
  <diagram name="Page-1" id="LM_asFJ4TOAk9_saxAfW">
    <mxGraphModel dx="954" dy="502" grid="1" gridSize="10" guides="1" tooltips="1" connect="1" arrows="1" fold="1" page="1" pageScale="1" pageWidth="850" pageHeight="1100" math="0" shadow="0">
      <root>
        <mxCell id="0" />
        <mxCell id="1" parent="0" />
        <mxCell id="LSOb9IBye-6bXAaHgn09-33" value="" style="endArrow=none;dashed=1;html=1;dashPattern=1 3;strokeWidth=2;rounded=0;exitX=0.5;exitY=0;exitDx=0;exitDy=0;" edge="1" parent="1" source="LSOb9IBye-6bXAaHgn09-28" target="LSOb9IBye-6bXAaHgn09-12">
          <mxGeometry width="50" height="50" relative="1" as="geometry">
            <mxPoint x="594" y="184" as="sourcePoint" />
            <mxPoint x="594" y="240" as="targetPoint" />
          </mxGeometry>
        </mxCell>
        <mxCell id="LSOb9IBye-6bXAaHgn09-32" value="" style="endArrow=none;dashed=1;html=1;dashPattern=1 3;strokeWidth=2;rounded=0;exitX=0.5;exitY=0;exitDx=0;exitDy=0;" edge="1" parent="1" source="LSOb9IBye-6bXAaHgn09-23" target="LSOb9IBye-6bXAaHgn09-11">
          <mxGeometry width="50" height="50" relative="1" as="geometry">
            <mxPoint x="452" y="181" as="sourcePoint" />
            <mxPoint x="452" y="240" as="targetPoint" />
          </mxGeometry>
        </mxCell>
        <mxCell id="LSOb9IBye-6bXAaHgn09-31" value="" style="endArrow=none;dashed=1;html=1;dashPattern=1 3;strokeWidth=2;rounded=0;exitX=0.5;exitY=0;exitDx=0;exitDy=0;" edge="1" parent="1" source="LSOb9IBye-6bXAaHgn09-27" target="LSOb9IBye-6bXAaHgn09-10">
          <mxGeometry width="50" height="50" relative="1" as="geometry">
            <mxPoint x="320" y="183" as="sourcePoint" />
            <mxPoint x="320" y="240" as="targetPoint" />
          </mxGeometry>
        </mxCell>
        <mxCell id="LSOb9IBye-6bXAaHgn09-30" value="" style="endArrow=none;dashed=1;html=1;dashPattern=1 3;strokeWidth=2;rounded=0;exitX=0.5;exitY=0;exitDx=0;exitDy=0;" edge="1" parent="1" source="LSOb9IBye-6bXAaHgn09-22" target="LSOb9IBye-6bXAaHgn09-9">
          <mxGeometry width="50" height="50" relative="1" as="geometry">
            <mxPoint x="170" y="183" as="sourcePoint" />
            <mxPoint x="170" y="240" as="targetPoint" />
          </mxGeometry>
        </mxCell>
        <mxCell id="LSOb9IBye-6bXAaHgn09-29" value="" style="endArrow=none;dashed=1;html=1;dashPattern=1 3;strokeWidth=2;rounded=0;exitX=0.5;exitY=0;exitDx=0;exitDy=0;" edge="1" parent="1" source="LSOb9IBye-6bXAaHgn09-21" target="LSOb9IBye-6bXAaHgn09-8">
          <mxGeometry width="50" height="50" relative="1" as="geometry">
            <mxPoint x="370" y="290" as="sourcePoint" />
            <mxPoint x="420" y="240" as="targetPoint" />
          </mxGeometry>
        </mxCell>
        <mxCell id="LSOb9IBye-6bXAaHgn09-14" style="edgeStyle=orthogonalEdgeStyle;rounded=0;orthogonalLoop=1;jettySize=auto;html=1;exitX=0.9;exitY=0.5;exitDx=0;exitDy=0;entryX=0;entryY=0.5;entryDx=0;entryDy=0;entryPerimeter=0;exitPerimeter=0;" edge="1" parent="1" source="LSOb9IBye-6bXAaHgn09-1" target="LSOb9IBye-6bXAaHgn09-2">
          <mxGeometry relative="1" as="geometry" />
        </mxCell>
        <mxCell id="LSOb9IBye-6bXAaHgn09-1" value="" style="shape=actor;whiteSpace=wrap;html=1;" vertex="1" parent="1">
          <mxGeometry x="20" y="111" width="40" height="60" as="geometry" />
        </mxCell>
        <mxCell id="LSOb9IBye-6bXAaHgn09-15" style="edgeStyle=orthogonalEdgeStyle;rounded=0;orthogonalLoop=1;jettySize=auto;html=1;exitX=1;exitY=0.5;exitDx=0;exitDy=0;exitPerimeter=0;" edge="1" parent="1" source="LSOb9IBye-6bXAaHgn09-2" target="LSOb9IBye-6bXAaHgn09-5">
          <mxGeometry relative="1" as="geometry" />
        </mxCell>
        <mxCell id="LSOb9IBye-6bXAaHgn09-2" value="" style="outlineConnect=0;dashed=0;verticalLabelPosition=bottom;verticalAlign=top;align=center;html=1;shape=mxgraph.aws3.mobile_client;fillColor=#D2D3D3;gradientColor=none;" vertex="1" parent="1">
          <mxGeometry x="140" y="110" width="40.5" height="63" as="geometry" />
        </mxCell>
        <mxCell id="LSOb9IBye-6bXAaHgn09-26" style="edgeStyle=orthogonalEdgeStyle;rounded=0;orthogonalLoop=1;jettySize=auto;html=1;exitX=1;exitY=0.5;exitDx=0;exitDy=0;entryX=0;entryY=0.5;entryDx=0;entryDy=0;" edge="1" parent="1" source="LSOb9IBye-6bXAaHgn09-3" target="LSOb9IBye-6bXAaHgn09-7">
          <mxGeometry relative="1" as="geometry" />
        </mxCell>
        <mxCell id="LSOb9IBye-6bXAaHgn09-3" value="" style="shape=image;html=1;verticalAlign=top;verticalLabelPosition=bottom;labelBackgroundColor=#ffffff;imageAspect=0;aspect=fixed;image=https://cdn1.iconfinder.com/data/icons/material-core/18/drive-site-128.png" vertex="1" parent="1">
          <mxGeometry x="550" y="110" width="63.5" height="63.5" as="geometry" />
        </mxCell>
        <mxCell id="LSOb9IBye-6bXAaHgn09-24" style="edgeStyle=orthogonalEdgeStyle;rounded=0;orthogonalLoop=1;jettySize=auto;html=1;exitX=1;exitY=0.5;exitDx=0;exitDy=0;" edge="1" parent="1" source="LSOb9IBye-6bXAaHgn09-5" target="LSOb9IBye-6bXAaHgn09-6">
          <mxGeometry relative="1" as="geometry" />
        </mxCell>
        <mxCell id="LSOb9IBye-6bXAaHgn09-5" value="" style="shape=image;html=1;verticalAlign=top;verticalLabelPosition=bottom;labelBackgroundColor=#ffffff;imageAspect=0;aspect=fixed;image=https://cdn2.iconfinder.com/data/icons/boxicons-solid-vol-2/24/bxs-file-html-128.png" vertex="1" parent="1">
          <mxGeometry x="280" y="111" width="60" height="60" as="geometry" />
        </mxCell>
        <mxCell id="LSOb9IBye-6bXAaHgn09-25" value="" style="edgeStyle=orthogonalEdgeStyle;rounded=0;orthogonalLoop=1;jettySize=auto;html=1;entryX=0;entryY=0.5;entryDx=0;entryDy=0;" edge="1" parent="1" source="LSOb9IBye-6bXAaHgn09-6" target="LSOb9IBye-6bXAaHgn09-3">
          <mxGeometry relative="1" as="geometry" />
        </mxCell>
        <mxCell id="LSOb9IBye-6bXAaHgn09-6" value="" style="sketch=0;outlineConnect=0;fontColor=#232F3E;gradientColor=none;fillColor=#232F3D;strokeColor=none;dashed=0;verticalLabelPosition=bottom;verticalAlign=top;align=center;html=1;fontSize=12;fontStyle=0;aspect=fixed;pointerEvents=1;shape=mxgraph.aws4.traditional_server;" vertex="1" parent="1">
          <mxGeometry x="425" y="111" width="34.62" height="60" as="geometry" />
        </mxCell>
        <mxCell id="LSOb9IBye-6bXAaHgn09-7" value="" style="shape=datastore;whiteSpace=wrap;html=1;" vertex="1" parent="1">
          <mxGeometry x="700" y="113" width="40" height="58" as="geometry" />
        </mxCell>
        <mxCell id="LSOb9IBye-6bXAaHgn09-8" value="" style="sketch=0;outlineConnect=0;fontColor=#232F3E;gradientColor=none;fillColor=#1A1A1A;strokeColor=none;dashed=0;verticalLabelPosition=bottom;verticalAlign=top;align=center;html=1;fontSize=12;fontStyle=0;aspect=fixed;pointerEvents=1;shape=mxgraph.aws4.cache_node;" vertex="1" parent="1">
          <mxGeometry x="130.25" y="230" width="60" height="60" as="geometry" />
        </mxCell>
        <mxCell id="LSOb9IBye-6bXAaHgn09-9" value="" style="sketch=0;outlineConnect=0;fontColor=#232F3E;gradientColor=none;fillColor=#1A1A1A;strokeColor=none;dashed=0;verticalLabelPosition=bottom;verticalAlign=top;align=center;html=1;fontSize=12;fontStyle=0;aspect=fixed;pointerEvents=1;shape=mxgraph.aws4.cache_node;" vertex="1" parent="1">
          <mxGeometry x="280" y="230" width="60" height="60" as="geometry" />
        </mxCell>
        <mxCell id="LSOb9IBye-6bXAaHgn09-10" value="" style="sketch=0;outlineConnect=0;fontColor=#232F3E;gradientColor=none;fillColor=#1A1A1A;strokeColor=none;dashed=0;verticalLabelPosition=bottom;verticalAlign=top;align=center;html=1;fontSize=12;fontStyle=0;aspect=fixed;pointerEvents=1;shape=mxgraph.aws4.cache_node;" vertex="1" parent="1">
          <mxGeometry x="412.31" y="230" width="60" height="60" as="geometry" />
        </mxCell>
        <mxCell id="LSOb9IBye-6bXAaHgn09-11" value="" style="sketch=0;outlineConnect=0;fontColor=#232F3E;gradientColor=none;fillColor=#1A1A1A;strokeColor=none;dashed=0;verticalLabelPosition=bottom;verticalAlign=top;align=center;html=1;fontSize=12;fontStyle=0;aspect=fixed;pointerEvents=1;shape=mxgraph.aws4.cache_node;" vertex="1" parent="1">
          <mxGeometry x="553.5" y="230" width="60" height="60" as="geometry" />
        </mxCell>
        <mxCell id="LSOb9IBye-6bXAaHgn09-12" value="" style="sketch=0;outlineConnect=0;fontColor=#232F3E;gradientColor=none;fillColor=#1A1A1A;strokeColor=none;dashed=0;verticalLabelPosition=bottom;verticalAlign=top;align=center;html=1;fontSize=12;fontStyle=0;aspect=fixed;pointerEvents=1;shape=mxgraph.aws4.cache_node;" vertex="1" parent="1">
          <mxGeometry x="690" y="230" width="60" height="60" as="geometry" />
        </mxCell>
        <mxCell id="LSOb9IBye-6bXAaHgn09-20" value="User" style="text;html=1;strokeColor=none;fillColor=none;align=center;verticalAlign=middle;whiteSpace=wrap;rounded=0;" vertex="1" parent="1">
          <mxGeometry x="10" y="173" width="60" height="30" as="geometry" />
        </mxCell>
        <mxCell id="LSOb9IBye-6bXAaHgn09-21" value="Browser" style="text;html=1;strokeColor=none;fillColor=none;align=center;verticalAlign=middle;whiteSpace=wrap;rounded=0;" vertex="1" parent="1">
          <mxGeometry x="130.25" y="173" width="60" height="30" as="geometry" />
        </mxCell>
        <mxCell id="LSOb9IBye-6bXAaHgn09-22" value="Webpage" style="text;html=1;strokeColor=none;fillColor=none;align=center;verticalAlign=middle;whiteSpace=wrap;rounded=0;" vertex="1" parent="1">
          <mxGeometry x="280" y="173" width="60" height="30" as="geometry" />
        </mxCell>
        <mxCell id="LSOb9IBye-6bXAaHgn09-23" value="Application" style="text;html=1;strokeColor=none;fillColor=none;align=center;verticalAlign=middle;whiteSpace=wrap;rounded=0;" vertex="1" parent="1">
          <mxGeometry x="553.5" y="173.5" width="60" height="30" as="geometry" />
        </mxCell>
        <mxCell id="LSOb9IBye-6bXAaHgn09-27" value="Web server" style="text;html=1;strokeColor=none;fillColor=none;align=center;verticalAlign=middle;whiteSpace=wrap;rounded=0;" vertex="1" parent="1">
          <mxGeometry x="403.46" y="171" width="77.69" height="30" as="geometry" />
        </mxCell>
        <mxCell id="LSOb9IBye-6bXAaHgn09-28" value="Database" style="text;html=1;strokeColor=none;fillColor=none;align=center;verticalAlign=middle;whiteSpace=wrap;rounded=0;" vertex="1" parent="1">
          <mxGeometry x="681.15" y="173" width="77.69" height="30" as="geometry" />
        </mxCell>
        <mxCell id="LSOb9IBye-6bXAaHgn09-35" value="Client&lt;br&gt;Caching" style="text;html=1;strokeColor=none;fillColor=none;align=center;verticalAlign=middle;whiteSpace=wrap;rounded=0;" vertex="1" parent="1">
          <mxGeometry x="130" y="290" width="60" height="30" as="geometry" />
        </mxCell>
        <mxCell id="LSOb9IBye-6bXAaHgn09-36" value="CDN&lt;br&gt;Caching" style="text;html=1;strokeColor=none;fillColor=none;align=center;verticalAlign=middle;whiteSpace=wrap;rounded=0;" vertex="1" parent="1">
          <mxGeometry x="280" y="290" width="60" height="30" as="geometry" />
        </mxCell>
        <mxCell id="LSOb9IBye-6bXAaHgn09-37" value="Webserver&lt;br&gt;Caching" style="text;html=1;strokeColor=none;fillColor=none;align=center;verticalAlign=middle;whiteSpace=wrap;rounded=0;" vertex="1" parent="1">
          <mxGeometry x="412.31" y="290" width="60" height="30" as="geometry" />
        </mxCell>
        <mxCell id="LSOb9IBye-6bXAaHgn09-38" value="Application&lt;br&gt;Caching" style="text;html=1;strokeColor=none;fillColor=none;align=center;verticalAlign=middle;whiteSpace=wrap;rounded=0;" vertex="1" parent="1">
          <mxGeometry x="553.5" y="290" width="60" height="30" as="geometry" />
        </mxCell>
        <mxCell id="LSOb9IBye-6bXAaHgn09-39" value="Database&lt;br&gt;Caching" style="text;html=1;strokeColor=none;fillColor=none;align=center;verticalAlign=middle;whiteSpace=wrap;rounded=0;" vertex="1" parent="1">
          <mxGeometry x="690" y="290" width="60" height="30" as="geometry" />
        </mxCell>
      </root>
    </mxGraphModel>
  </diagram>
</mxfile>
